<svg width="17" height="17" viewBox="0 0 17 17" fill="none" xmlns="http://www.w3.org/2000/svg">
<path d="M8.4375 0C6.76872 0 5.13742 0.494851 3.74988 1.42198C2.36234 2.3491 1.28088 3.66686 0.64227 5.20861C0.00365585 6.75036 -0.163435 8.44686 0.162128 10.0836C0.487691 11.7203 1.29129 13.2237 2.47129 14.4037C3.6513 15.5837 5.15471 16.3873 6.79143 16.7129C8.42814 17.0384 10.1246 16.8713 11.6664 16.2327C13.2081 15.5941 14.5259 14.5127 15.453 13.1251C16.3802 11.7376 16.875 10.1063 16.875 8.4375C16.8725 6.2005 15.9828 4.05583 14.401 2.47403C12.8192 0.892227 10.6745 0.00248142 8.4375 0ZM8.4375 15C7.13956 15 5.87077 14.6151 4.79157 13.894C3.71238 13.1729 2.87124 12.148 2.37454 10.9489C1.87784 9.74972 1.74788 8.43022 2.0011 7.15722C2.25432 5.88422 2.87933 4.71489 3.79712 3.79711C4.7149 2.87933 5.88422 2.25431 7.15722 2.0011C8.43022 1.74788 9.74972 1.87784 10.9489 2.37454C12.148 2.87124 13.1729 3.71237 13.894 4.79157C14.6151 5.87077 15 7.13956 15 8.4375C14.9981 10.1774 14.3061 11.8455 13.0758 13.0758C11.8455 14.3061 10.1774 14.9981 8.4375 15ZM13.75 8.4375C13.75 8.68614 13.6512 8.9246 13.4754 9.10041C13.2996 9.27623 13.0611 9.375 12.8125 9.375H8.4375C8.18886 9.375 7.95041 9.27623 7.77459 9.10041C7.59878 8.9246 7.5 8.68614 7.5 8.4375V4.0625C7.5 3.81386 7.59878 3.5754 7.77459 3.39959C7.95041 3.22377 8.18886 3.125 8.4375 3.125C8.68614 3.125 8.9246 3.22377 9.10042 3.39959C9.27623 3.5754 9.375 3.81386 9.375 4.0625V7.5H12.8125C13.0611 7.5 13.2996 7.59877 13.4754 7.77459C13.6512 7.9504 13.75 8.18886 13.75 8.4375Z" fill="#64748B"/>
</svg>
